<svg xmlns="http://www.w3.org/2000/svg" viewBox="0 0 64 64"><defs><style>.cls-1{stroke:#000;stroke-miterlimit:10;}.cls-2{fill:#fff;}</style></defs><title>BOTONMesa de trabajo 1</title><g id="Capa_2" data-name="Capa 2"><path class="cls-1" d="M11.45,12.71,28.93,7.56,50.41,19l7.4,13.78-3.4,14L39.15,58.66s-13.63-2.81-14.07-2.81S9.37,38.07,9.37,38.07V16.59Z"/></g><g id="Livello_1" data-name="Livello 1"><path class="cls-2" d="M46.79,32A14.79,14.79,0,1,1,32,17.21,14.81,14.81,0,0,1,46.79,32ZM62,32A30,30,0,1,1,32,2,30,30,0,0,1,62,32ZM51.29,32A19.29,19.29,0,1,0,32,51.29,19.29,19.29,0,0,0,51.29,32Z"/></g></svg>