<svg xmlns="http://www.w3.org/2000/svg" viewBox="0 0 64 64"><defs><style>.cls-1{stroke:#000;stroke-miterlimit:10;}.cls-2{fill:#fff;}</style></defs><title>BOTONMesa de trabajo 1</title><g id="Capa_2" data-name="Capa 2"><polygon class="cls-1" points="13.91 13.85 10.29 39.66 17.23 54.8 44.18 52.62 53.41 45.99 52.48 15 40.66 6.28 13.91 13.85"/></g><g id="Livello_1" data-name="Livello 1"><path class="cls-2" d="M32,2A30,30,0,1,0,62,32,30,30,0,0,0,32,2ZM49,46.5A2.5,2.5,0,0,1,46.5,49h-29A2.5,2.5,0,0,1,15,46.5v-29A2.5,2.5,0,0,1,17.5,15h29A2.5,2.5,0,0,1,49,17.5ZM19,19H45V45H19Z"/></g></svg>