<svg xmlns="http://www.w3.org/2000/svg" viewBox="0 0 64 64"><defs><style>.cls-1{fill:#fff;}</style></defs><title>BOTONMesa de trabajo 1</title><g id="Capa_2" data-name="Capa 2"><polygon points="20.77 10.41 12.87 14.21 10.73 32 10.73 50.2 25.13 54.18 50.14 52.66 53.48 44.7 57.46 26.89 53.8 15.46 50.14 11.93 26.77 7.88 20.77 10.41"/></g><g id="Livello_1" data-name="Livello 1"><path class="cls-1" d="M32,2A30,30,0,1,0,62,32,30,30,0,0,0,32,2ZM49.13,46A2.25,2.25,0,1,1,46,49.13l-14-14-13.95,14A2.25,2.25,0,1,1,14.87,46l14-14L14.87,18.05a2.25,2.25,0,0,1,3.18-3.18l14,14L46,14.87a2.25,2.25,0,1,1,3.18,3.18l-14,14Z"/></g></svg>