<svg xmlns="http://www.w3.org/2000/svg" viewBox="0 0 1000 1000"><defs><style>.cls-1{fill:#fff;}</style></defs><title>BOTONMesa de trabajo 1</title><g id="Capa_3" data-name="Capa 3"><rect class="cls-1" x="332.57" y="36.04" width="334.86" height="927.93" rx="125.26" transform="translate(1000 0) rotate(90)"/><rect class="cls-1" x="332.57" y="36.04" width="334.86" height="927.93" rx="125.26"/></g><g id="Capa_4" data-name="Capa 4"><path d="M495.87,878.91V764c0-3.52,1.82-6.38,4.07-6.38h71.88c3.61,0,5.44,6.81,2.91,10.85L502.85,883.38C500.3,887.46,495.87,884.63,495.87,878.91Z"/><path d="M504.13,878.91V764c0-3.52-1.82-6.38-4.07-6.38H428.18c-3.61,0-5.44,6.81-2.91,10.85l71.88,114.93C499.7,887.46,504.13,884.63,504.13,878.91Z"/></g></svg>