<svg xmlns="http://www.w3.org/2000/svg" viewBox="0 0 1000 1000"><defs><style>.cls-1{fill:#fff;}</style></defs><title>BOTONMesa de trabajo 1</title><g id="Capa_3" data-name="Capa 3"><rect class="cls-1" x="332.57" y="36.04" width="334.86" height="927.93" rx="125.26"/><rect class="cls-1" x="332.57" y="36.04" width="334.86" height="927.93" rx="125.26" transform="translate(0 1000) rotate(-90)"/></g><g id="Capa_4" data-name="Capa 4"><path d="M504.13,121.09V236c0,3.52-1.82,6.38-4.07,6.38H428.18c-3.61,0-5.44-6.81-2.91-10.85l71.88-114.93C499.7,112.54,504.13,115.37,504.13,121.09Z"/><path d="M495.87,121.09V236c0,3.52,1.82,6.38,4.07,6.38h71.88c3.61,0,5.44-6.81,2.91-10.85L502.85,116.62C500.3,112.54,495.87,115.37,495.87,121.09Z"/></g></svg>