<svg xmlns="http://www.w3.org/2000/svg" viewBox="0 0 1000 1000"><defs><style>.cls-1{fill:#fff;}</style></defs><title>BOTONMesa de trabajo 1</title><g id="Capa_3" data-name="Capa 3"><rect class="cls-1" x="332.57" y="36.04" width="334.86" height="927.93" rx="125.26" transform="translate(1000 1000) rotate(180)"/><rect class="cls-1" x="332.57" y="36.04" width="334.86" height="927.93" rx="125.26" transform="translate(1000 0) rotate(90)"/></g><g id="Capa_4" data-name="Capa 4"><path d="M121.09,495.87H236c3.52,0,6.38,1.82,6.38,4.07v71.88c0,3.61-6.81,5.44-10.85,2.91L116.62,502.85C112.54,500.3,115.37,495.87,121.09,495.87Z"/><path d="M121.09,504.13H236c3.52,0,6.38-1.82,6.38-4.07V428.18c0-3.61-6.81-5.44-10.85-2.91L116.62,497.15C112.54,499.7,115.37,504.13,121.09,504.13Z"/></g></svg>