<svg xmlns="http://www.w3.org/2000/svg" viewBox="0 0 64 64"><defs><style>.cls-1{stroke:#000;stroke-miterlimit:10;}.cls-2{fill:#fff;}</style></defs><title>BOTONMesa de trabajo 1</title><g id="Capa_2" data-name="Capa 2"><polygon class="cls-1" points="26.54 6.54 35.94 6.54 56.81 41.98 50.51 52.72 14.56 51.48 6.81 43 26.54 6.54"/></g><g id="Livello_1" data-name="Livello 1"><path class="cls-2" d="M32,20.14,45.16,43H18.84ZM62,32A30,30,0,1,1,32,2,30,30,0,0,1,62,32ZM51.44,45.36,33.5,14.16A1.86,1.86,0,0,0,32,13.08a1.83,1.83,0,0,0-1.5,1.07L12.56,45.37c-.83,1.42-.15,2.63,1.5,2.63H49.94C51.59,48,52.27,46.79,51.44,45.36Z"/></g></svg>